# xmcd CD database file
#
# Track frame offsets:
#	150
#	18089
#	36481
#	56560
#	74905
#	96469
#	122664
#	140863
#	162548
#	178483
#	201819
#	224911
#
# Disc length: 3366 seconds
#
# Revision: 0
# Processed by: cddbd v1.5.1PL0 Copyright (c) Steve Scherf et al.
# Submitted via: CdAid (MTCDDB.DLL V2003.12.21)
#
DISCID=cf0d240c
DTITLE=Diana Krall - The Girl in the Other Room
DYEAR=2004
DGENRE=Blues
TTITLE0=Stop This World
TTITLE1=The Girl in the Other Room
TTITLE2=Temptation
TTITLE3=Almost Blue
TTITLE4=I've Changed My Address
TTITLE5=Love Me Like A Man
TTITLE6=I'm Pulling Through
TTITLE7=Black Crow
TTITLE8=Narrow Daylight
TTITLE9=Abandoned Masquerade
TTITLE10=I'm Coming Through
TTITLE11=Departure Bay
EXTD=ID3G:   0 YEAR: 2004
EXTT0=
EXTT1=
EXTT2=
EXTT3=
EXTT4=
EXTT5=
EXTT6=
EXTT7=
EXTT8=
EXTT9=
EXTT10=
EXTT11=
PLAYORDER=
